<?xml version="1.0" encoding="utf-8"?>
<!-- Generator: Adobe Illustrator 15.0.2, SVG Export Plug-In . SVG Version: 6.00 Build 0)  -->
<!DOCTYPE svg PUBLIC "-//W3C//DTD SVG 1.1//EN" "http://www.w3.org/Graphics/SVG/1.1/DTD/svg11.dtd">
<svg version="1.1" id="Layer_1" xmlns="http://www.w3.org/2000/svg" xmlns:xlink="http://www.w3.org/1999/xlink" x="0px" y="0px"
	 width="510.24px" height="510.24px" viewBox="0 0 510.24 510.24" enable-background="new 0 0 510.24 510.24" xml:space="preserve">
<g>
	<path d="M406.294,181.664c1.189-42.174-8.178-80.268-27.243-110.55C355.116,33.111,317.438,9.601,270.06,3.121
		c-5.646-0.76-10.425-1.266-15.394-1.266c-4.959,0-9.734,0.506-15.403,1.269c-47.362,6.48-85.038,29.992-108.954,67.991
		c-19.075,30.296-28.443,68.396-27.244,110.56c-17.696,12.816-28.791,35.248-28.791,59.23v198.125
		c0,38.724,27.878,70.228,62.146,70.228h236.523c34.265,0,62.144-31.504,62.144-70.228V240.904
		C435.086,216.926,423.99,194.488,406.294,181.664z M282.818,330.094c-6.944,4.22-11.051,10.946-11.051,18.106v80.216h-33.639V348.2
		c0-7.154-4.1-13.876-11.034-18.094c-15.408-9.379-24.607-25.366-24.607-42.769c0-27.864,23.532-50.534,52.458-50.534
		c28.944,0,52.494,22.669,52.494,50.534C307.439,304.745,298.235,320.728,282.818,330.094z M168.085,170.662
		c0.531-25.427,6.425-47.69,17.256-64.891c13.558-21.504,34.634-34.351,62.683-38.185c4.768-0.67,8.509-0.674,13.34,0.006
		c28.014,3.829,49.094,16.674,62.647,38.167c10.828,17.217,16.72,39.48,17.248,64.903H168.085z"/>
</g>
</svg>
