<?xml version="1.0" encoding="utf-8"?>
<!-- Generator: Adobe Illustrator 15.0.2, SVG Export Plug-In . SVG Version: 6.00 Build 0)  -->
<!DOCTYPE svg PUBLIC "-//W3C//DTD SVG 1.1//EN" "http://www.w3.org/Graphics/SVG/1.1/DTD/svg11.dtd">
<svg version="1.1" id="Layer_1" xmlns="http://www.w3.org/2000/svg" xmlns:xlink="http://www.w3.org/1999/xlink" x="0px" y="0px"
	 width="510.24px" height="571.873px" viewBox="0 0 510.24 571.873" enable-background="new 0 0 510.24 571.873"
	 xml:space="preserve">
<path d="M404.87,41.525c-7.868-8.059-15.011-13.624-24.65-19.206C354.67,7.51,328.184,0,301.497,0
	c-16.813,0-33.661,3.009-50.075,8.943c-4.735,1.712-9.595,3.744-14.445,6.042c-0.024,0.012-0.049,0.023-0.074,0.035
	c-30.948,14.786-59.187,40.207-81.679,73.533c-3.193,4.747-6.483,10.024-9.794,15.711c-4.392,7.586-5.567,16.429-3.31,24.899
	c2.258,8.475,7.68,15.561,15.263,19.949c4.996,2.895,10.678,4.425,16.433,4.425c11.681,0,22.566-6.271,28.398-16.352
	c2.264-3.898,4.78-7.9,7.486-11.905c11.676-17.323,24.914-31.291,39.346-41.515c7.995-5.655,16.314-10.065,24.726-13.11
	c8.983-3.254,18.224-4.904,27.462-4.904c15.291,0,30.796,4.493,46.084,13.356c4.115,2.383,7.174,4.765,10.541,8.203
	c19.977,20.467,28.809,43.792,26.255,69.33c-2.427,24.346-14.722,49.771-35.599,73.665H122.744
	c-34.56,0-62.676,31.787-62.676,70.859v199.863c0,39.063,28.116,70.844,62.676,70.844h238.615c34.561,0,62.676-31.78,62.676-70.844
	V301.166c0-15.832-4.784-31.241-13.355-43.636c22.198-30.019,35.541-62.488,38.727-94.428
	C453.91,118.043,438.511,76.004,404.87,41.525z M270.229,390.459c-7.018,4.235-11.181,11.009-11.202,18.231l-0.243,80.92
	l-33.936-0.103l0.244-80.919c0.022-7.217-4.093-14.011-11.076-18.287c-15.515-9.508-24.746-25.663-24.693-43.218
	c0.084-28.109,23.893-50.905,53.072-50.817c29.199,0.087,52.885,23.027,52.801,51.136
	C295.144,364.962,285.812,381.058,270.229,390.459z"/>
</svg>
